<svg
  width="53"
  height="20"
  viewBox="0 0 53 20"
  fill="none"
  xmlns="http://www.w3.org/2000/svg"
>
  <path
    fill-rule="evenodd"
    clip-rule="evenodd"
    d="M14.2692 13.9487C14.2692 15.282 13.4538 16.4102 11.7212 16.4102H3.87308V11.5897H11.6192C13.4538 11.4872 14.2692 12.6154 14.2692 13.9487ZM18.0404 14.1538C18.0404 11.4872 16.5115 10.2564 15.3904 9.74356C16.4096 9.23074 17.8365 7.89741 17.8365 5.641C17.8365 2.25639 15.5942 0.102539 11.7212 0.102539H0V19.8974H12.0269C15.5942 19.7948 18.0404 17.8461 18.0404 14.1538ZM13.9635 5.74357C13.9635 7.0769 13.0462 7.99997 11.4154 7.99997H3.87308V3.48715H11.4154C13.0462 3.48715 13.9635 4.41023 13.9635 5.74357Z"
    fill="currentColor"
  />
  <path
    fill-rule="evenodd"
    clip-rule="evenodd"
    d="M33.2269 17.8462C34.5519 19.1795 36.4884 20 38.6288 20C42.7058 20 45.8654 17.2308 45.8654 13.0256V0H42.0942V12.9231C42.0942 15.1795 40.7692 16.5128 38.6288 16.5128C36.5904 16.5128 35.2654 15.2821 35.2654 13.0256V0H31.4942V12.9231C31.4942 15.1795 30.1692 16.5128 28.0288 16.5128C25.9904 16.5128 24.6654 15.1795 24.6654 12.9231V0H20.7923V13.0256C20.7923 17.2308 24.0538 20 28.0288 20C30.0673 20 31.9019 19.0769 33.2269 17.8462Z"
    fill="currentColor"
  />
  <path
    d="M53 0H49.1269V19.7949H53V0Z"
    fill="currentColor"
  />
</svg>
