<svg
  width="23"
  height="20"
  viewBox="0 0 23 20"
  fill="none"
  xmlns="http://www.w3.org/2000/svg"
>
  <path
    d="M15.2299 10.2084L13.5486 13.1251C13.4735 13.2542 13.3359 13.3334 13.1857 13.3334H9.81472C9.6645 13.3334 9.52684 13.2542 9.45173 13.1251L7.76629 10.2084C7.69118 10.0792 7.69118 9.92094 7.76629 9.79176L9.45173 6.87512C9.52684 6.74594 9.6645 6.66676 9.81472 6.66676H13.1857C13.3359 6.66676 13.4735 6.74594 13.5486 6.87512L15.2299 9.79176C15.305 9.92094 15.305 10.0792 15.2299 10.2084Z"
    fill="currentColor"
  />
  <path
    d="M8.61302 15L6.6814 11.6666L6.2016 10.8334L5.83865 10.2125C5.76356 10.0834 5.76356 9.925 5.83865 9.79582L7.28631 7.29165C7.44483 7.01247 7.24461 6.66665 6.92339 6.66665H2.10476C1.95457 6.66665 1.81688 6.74582 1.74179 6.875L0.0563214 9.79165C-0.0187738 9.92082 -0.0187738 10.0792 0.0563214 10.2084L2.8265 15.0042L3.79022 16.6666L5.59668 19.7916C5.67178 19.9208 5.80945 20 5.95961 20H10.7824C11.1037 20 11.3039 19.6542 11.1454 19.375L8.6172 15H8.61302ZM20.5323 5.62084C20.3738 5.34166 19.9691 5.34166 19.8105 5.62084L17.2823 9.99582L15.359 13.3334L14.5163 14.7916C14.4412 14.9208 14.3035 15 14.1534 15H11.2622C10.941 15 10.7407 15.3458 10.8993 15.625L13.3065 19.7916C13.3815 19.9208 13.5193 20 13.6694 20H17.0404C17.1906 20 17.3282 19.9208 17.4033 19.7916L22.9437 10.2084C23.0188 10.0792 23.0188 9.92082 22.9437 9.79165L20.5323 5.62084ZM17.0362 0H5.95549C5.80528 0 5.66761 0.0791665 5.59251 0.208334L3.18529 4.375C3.02676 4.65416 3.22701 5 3.54825 5H14.1492C14.2994 5 14.4371 5.07916 14.5121 5.20834L15.9556 7.70835C16.1142 7.98747 16.5189 7.98747 16.6774 7.70835L19.0846 3.54166C19.1597 3.4125 19.1597 3.25416 19.0846 3.125L17.3992 0.208334C17.3241 0.0791665 17.1864 0 17.0362 0Z"
    fill="currentColor"
  />
</svg>
