<svg
  width="20"
  height="20"
  viewBox="0 0 32 32"
  fill="none"
  xmlns="http://www.w3.org/2000/svg"
>
  <path
    d="M31.5733 10.6615H26.8311C26.5467 10.6615 26.4044 10.8037 26.4044 11.0881L26.3467 27.0115C26.3467 27.2114 26.2044 27.3537 25.92 27.4381C25.2089 27.6092 24.1978 27.6959 22.8867 27.6959C22.0311 27.6959 21.3356 27.6314 20.7933 27.5025C20.2533 27.3737 19.8311 27.1603 19.5333 26.8626C19.2333 26.5626 19.0867 26.2582 18.9711 25.7182C18.8622 25.1983 18.7489 24.4405 18.7444 23.685L18.8022 8.16166C18.8022 6.59732 18.66 5.29297 18.3756 4.25304C18.0911 3.21533 17.5844 2.38206 16.8578 1.75543C16.1311 1.12881 15.1556 0.679953 13.9311 0.40886C12.7044 0.135546 11.1511 0 9.27111 0C8.58889 0 7.85333 0.0288869 7.07111 0.0866606C6.28667 0.144434 5.49778 0.215541 4.7 0.299979C3.90222 0.384418 3.13333 0.484411 2.39333 0.599958C1.65333 0.715506 0.997778 0.813277 0.428889 0.897715C0.142222 0.955489 0 1.0977 0 1.32435V21.0363C0 21.0385 0 21.0385 0 21.0385V23.8383C0 25.4049 0.142222 26.707 0.426667 27.747C0.711111 28.7869 1.21778 29.6202 1.94222 30.2468C2.66889 30.8734 3.64444 31.3223 4.86889 31.5934C6.09333 31.8645 7.64444 32 9.52667 32C10.2111 32 10.9422 31.9711 11.7267 31.9156C12.5111 31.8578 13.3 31.7889 14.0978 31.7022C14.8956 31.6178 15.6644 31.5178 16.4067 31.4023C16.5489 31.38 16.6844 31.36 16.8222 31.3378C17.2311 31.4089 17.5756 31.4667 18.0289 31.5667C19.2533 31.8378 20.8067 31.9733 22.6867 31.9733C23.3711 31.9733 24.1044 31.9444 24.8867 31.8867C25.6711 31.8289 26.46 31.7578 27.2578 31.6734C28.0556 31.5867 28.8244 31.4867 29.5644 31.3734C30.3044 31.26 30.96 31.1601 31.5289 31.0756C31.8133 31.0178 31.9556 30.8756 31.9556 30.649L32 11.0881C32 10.8037 31.8578 10.6615 31.5733 10.6615ZM12.8489 27.4248C12.1378 27.5959 11.1267 27.6825 9.81555 27.6825C8.96222 27.6825 8.26444 27.6181 7.72222 27.4892C7.18222 27.3603 6.76222 27.1492 6.46222 26.8492C6.16444 26.5493 5.95778 26.1293 5.84444 25.5893C5.73111 25.0471 5.67333 24.3783 5.67333 23.5806V4.99965C5.67333 4.79967 5.81556 4.65745 6.1 4.57302C6.81111 4.40192 7.82222 4.31526 9.13333 4.31526C9.98889 4.31526 10.6844 4.3797 11.2267 4.50635C11.7667 4.63523 12.1889 4.84855 12.4867 5.14631C12.7867 5.44629 12.9911 5.86626 13.1067 6.40622C13.22 6.94841 13.2778 7.61725 13.2778 8.41497V26.9981C13.2756 27.1981 13.1333 27.3403 12.8489 27.4248Z"
    fill="currentColor"
  ></path>
</svg>
