<svg width="28" height="40" viewBox="0 0 28 40" fill="none" xmlns="http://www.w3.org/2000/svg">
<path d="M7.53956 40V37.672H2.51869V34.878H7.30908V32.516H2.51869V30.056H7.52371V27.678H0V40H7.53956Z" fill="var(--color-foreground)"/>
<path d="M17.7418 31.602C17.7418 29.1073 16.6554 27.6773 13.7253 27.6773H9.06635V39.9987H11.6016V35.8747H13.2149L14.9596 39.9987H17.6586L15.7005 35.5093C17.1653 34.862 17.7418 33.4147 17.7418 31.602ZM15.2244 31.7853C15.2244 33.0993 14.7793 33.598 13.66 33.598H11.6022V29.9727H13.66C14.7786 29.9727 15.2244 30.4553 15.2244 31.7853Z" fill="var(--color-foreground)"/>
<path d="M6.45323 26.194V13.872H4.00124V20.9727L0 13.872V19.0047L4.08313 26.194H6.45323Z" fill="var(--color-foreground)"/>
<path d="M18.0667 20.0413C18.0667 16.6827 17.3739 13.722 13.0128 13.722C8.64965 13.722 7.95824 16.682 7.95824 20.0413C7.95824 23.384 8.64965 26.344 13.0128 26.344C17.3746 26.344 18.0667 23.3833 18.0667 20.0413ZM15.4489 20.1247C15.4489 22.4527 15.1861 24.032 13.0134 24.032C10.8401 24.032 10.5766 22.4527 10.5766 20.1247C10.5766 17.8133 10.8401 16.2333 13.0134 16.2333C15.1854 16.2333 15.4489 17.8133 15.4489 20.1247Z" fill="var(--color-foreground)"/>
<path d="M24.5879 26.2773L27.9994 13.872H25.3817L23.2559 22.5027L20.7366 13.872H18.0865L21.8242 26.2773H24.5879Z" fill="var(--color-foreground)"/>
<path d="M15.0791 3.52067L16.4606 8.188H13.6659L15.0791 3.52067ZM13.7313 0L9.93343 12.3913H12.5149L13.057 10.4807H17.0867L17.6453 12.3913H20.2922L16.495 0H13.7313Z" fill="var(--color-foreground)"/>
<path d="M2.58209 4.75067V0.0833333H0V12.3913H2.58209V7.32533H6.56087V12.3913H9.15881V0.0833333H6.56087V4.75067H2.58209Z" fill="var(--color-foreground)"/>
<path d="M27.9994 7.32267L23.9216 0.0833333H21.1922V12.3913H23.6429V4.71733L27.9994 12.3913V7.32267Z" fill="var(--color-foreground)"/>
<path d="M21.6671 33.602V37.9792H25.9992V40H19.6661V33.602H21.6671ZM28 31.5819V37.9792H25.9992V33.602H21.6671V31.5819H28Z" fill="var(--color-foreground)"/>
</svg>
