<svg width="130" height="40" viewBox="0 0 130 40" fill="none" xmlns="http://www.w3.org/2000/svg">
<path d="M53.7117 33.071C54.9387 38.0108 59.1834 40 63.9585 40C68.6669 40 74.1052 37.8116 74.1052 32.3413C74.1052 29.8553 72.9447 27.7334 70.7231 26.5397C68.7334 25.512 66.4455 25.1477 64.29 24.7168C63.4278 24.5178 61.7697 24.2854 61.7697 23.0921C61.7697 21.8987 63.0963 21.6334 64.0245 21.6334C65.7818 21.6334 67.0421 22.2301 67.7056 23.9209L73.4752 22.1637C72.0826 18.2188 68.2692 16.5943 64.323 16.5943C62.0682 16.5943 59.6475 17.0252 57.7907 18.3182C55.9667 19.6113 54.8725 21.7991 54.8725 24.0205C54.8725 29.4243 59.9458 30.5846 64.2235 31.4132C65.2515 31.6121 67.009 31.8772 67.009 33.2699C67.009 34.5297 65.2183 34.6622 64.323 34.6622C62.3004 34.6622 60.7748 33.9328 60.1781 31.9107L53.7117 33.071ZM32.1288 34.0985H23.2089V16.9257H16.1787V39.6682H32.1288V34.0985ZM40.122 25.6447V21.7991H42.8411C44.1675 21.7991 45.5599 22.0314 45.5599 23.7222C45.5599 24.2527 45.3281 24.8163 44.8971 25.214C44.3996 25.6778 43.6036 25.6447 42.9405 25.6447H40.122ZM33.722 39.6682H44.1342C46.19 39.6682 48.6442 39.6352 50.4014 38.3752C52.0261 37.2147 52.7228 35.0268 52.7228 33.071C52.7228 30.3522 50.9322 28.3631 48.3124 27.899V27.8328C50.6337 27.3021 52.1588 25.2798 52.1588 22.8931C52.1588 21.0367 51.2636 19.1801 49.7384 18.0861C48.3124 17.0584 46.555 16.9257 44.8307 16.9257H33.722V39.6682ZM40.122 34.5959V30.4849H42.8742C43.5043 30.4849 44.3 30.4849 44.8971 30.7835C45.5599 31.1148 45.9911 31.8109 45.9911 32.5738C45.9911 33.2034 45.6596 33.8002 45.1622 34.1652C44.5983 34.6288 43.8358 34.5959 43.1395 34.5959H40.122ZM129.907 4.23348C130.036 4.34596 130.092 4.45017 129.66 4.31384C129.036 4.11747 128.548 4.00086 128.15 3.89851C121.598 2.24215 114.248 2.59602 107.953 4.20043C103.743 5.27401 98.5771 7.59592 92.8963 11.2238C88.4152 14.0852 86.747 15.2444 82.8509 18.4456C66.4605 6.5064 55.3018 3.74624 42.04 3.74624C24.2801 3.74624 9.06962 11.4041 0.299273 18.1954C0.00402035 18.4228 -0.0944303 18.3367 0.102371 18.1277C7.98771 9.63192 24.5812 0 45.2114 0C60.9725 0 74.9843 6.25994 82.8509 12.3117C87.0654 9.21008 92.7562 6.02617 98.9606 3.73296C104.952 1.51868 110.201 0.899367 114.205 0.899367C121.441 0.899367 125.656 1.97707 128.285 3.28028C128.724 3.49777 129.631 3.99454 129.907 4.23348Z" fill="var(--color-foreground)"/>
</svg>
