<svg width="31" height="40" viewBox="0 0 31 40" fill="none" xmlns="http://www.w3.org/2000/svg">
<path d="M11.9043 1.49586C12.3693 1.01458 12.9282 0.633591 13.5465 0.376395C14.1647 0.119198 14.8292 -0.00874439 15.4989 0.000463989C16.8977 0.000463989 18.0944 0.500423 19.0935 1.49586C20.0926 2.49353 20.5911 3.69074 20.5911 5.08524C20.5911 6.48199 20.0926 7.69041 19.0935 8.7105C18.6335 9.20095 18.0764 9.59053 17.4576 9.85452C16.8388 10.1185 16.1718 10.2512 15.4989 10.244C14.8258 10.2525 14.1583 10.1205 13.5393 9.85644C12.9203 9.59236 12.3634 9.20204 11.9043 8.7105C11.4239 8.23743 11.0437 7.67268 10.7864 7.04987C10.5292 6.42706 10.4 5.75893 10.4067 5.08524C10.4067 3.69298 10.9051 2.49353 11.9043 1.49586ZM0.00224508 32.8206H23.6603V29.7558H0.00224508V18.3936C0.00224508 17.147 0.538857 15.9879 1.61208 14.9185C2.6853 13.8446 3.89549 13.3088 5.24263 13.3088H25.7574C27.0551 13.3088 28.2541 13.8087 29.352 14.8042C30.4522 15.8018 31 16.9991 31 18.3936V20.4113H7.34193V23.4761H31V34.9146C31 36.2598 30.4881 37.4435 29.4643 38.4659C28.984 38.9608 28.4074 39.3521 27.7698 39.6159C27.1323 39.8796 26.4474 40.0101 25.7574 39.9994H5.24263C3.79445 39.9994 2.55957 39.5398 1.53574 38.6161C0.511914 37.6946 0 36.4616 0 34.9168L0.00224508 32.8206Z" fill="var(--color-foreground)"/>
</svg>
